# xmcd CD database file
#
# Track frame offsets:
#	150
#	21474
#	40776
#	59185
#	78654
#	101979
#	119979
#	137313
#	148787
#	160007
#	174050
#	196370
#
# Disc length: 2949 seconds
#
# Revision: 0
# Processed by: cddbd v1.5.1PL0 Copyright (c) Steve Scherf et al.
# Submitted via: CDex 1.50
#
DISCID=af0b830c
DTITLE=Dov Hammer - Going Deep
DYEAR=2004
DGENRE=Blues
TTITLE0=Secret Smile
TTITLE1=Move a Little Closer
TTITLE2=Evil Ways
TTITLE3=Big Little Woman
TTITLE4=Sweet Blues
TTITLE5=Silver Dollar
TTITLE6=Stranger
TTITLE7=Her Love is Like a Rock
TTITLE8=Holding on
TTITLE9=Don't Cry for Me
TTITLE10=Keep on Searching
TTITLE11=Ely's Shack
EXTD=YEAR: 2004
EXTT0=
EXTT1=
EXTT2=
EXTT3=
EXTT4=
EXTT5=
EXTT6=
EXTT7=
EXTT8=
EXTT9=
EXTT10=
EXTT11=
PLAYORDER=
